<?xml version="1.0" encoding="UTF-8"?>
<svg id="Layer_1" data-name="Layer 1" xmlns="http://www.w3.org/2000/svg" viewBox="0 0 307.73 307.73">
  <defs>
    <style>
      .cls-1 {
        fill: #fff;
      }

      .cls-2 {
        fill: #0a0203;
      }
    </style>
  </defs>
  <circle class="cls-1" cx="153.87" cy="153.87" r="153.87"/>
  <g>
    <circle class="cls-2" cx="153.7" cy="153.59" r="140"/>
    <path class="cls-1" d="M97.09,108.82l-51.82.03v90.05h27.75v-27.24h16.39c17.76,0,31.03-7.56,34.43-23.5l-26.76-39.34Z"/>
    <polygon class="cls-1" points="166.47 151.23 195.35 108.85 165 108.85 101.55 198.9 133.93 198.9 149.82 172.04 165.21 198.9 198.64 198.9 166.47 151.23"/>
    <polygon class="cls-1" points="137.59 108.85 105.05 108.85 131.49 146.01 146.46 124.77 137.59 108.85"/>
    <polygon class="cls-1" points="265.08 175.82 225.22 175.82 225.22 108.85 197.48 108.85 197.48 183.34 208.08 198.9 265.08 198.9 265.08 175.82"/>
    <path class="cls-2" d="M79.91,151.13c-.94,0-1.89-.37-2.62-1.11l-8.17-8.28c-2.66-2.69-2.97-7.11-.71-10.05,1.22-1.59,3.01-2.57,4.93-2.69,1.92-.12,3.8.61,5.18,2.01l1.41,1.43,1.34-1.35c1.35-1.36,3.1-2.07,4.97-2,1.86.06,3.58.9,4.84,2.35,2.55,2.93,2.4,7.55-.32,10.3l-8.24,8.29c-.73.74-1.67,1.11-2.61,1.11ZM80.38,146.74h0s0,0,0,0ZM73.76,133.55s-.1,0-.15,0c-.68.04-1.3.39-1.74.97-.86,1.12-.7,2.89.34,3.94l7.7,7.8,7.76-7.81c1.05-1.06,1.1-2.83.12-3.96-.45-.52-1.05-.82-1.7-.84-.63-.02-1.26.23-1.74.71l-4.43,4.46-4.5-4.56c-.46-.47-1.05-.72-1.66-.72Z"/>
  </g>
</svg>