<?xml version="1.0" encoding="UTF-8"?>
<svg id="Layer_1" data-name="Layer 1" xmlns="http://www.w3.org/2000/svg" viewBox="0 0 1172.52 280">
  <defs>
    <style>
      .cls-1 {
        fill: #fff;
      }

      .cls-2 {
        fill: #0a0203;
      }
    </style>
  </defs>
  <circle class="cls-2" cx="140" cy="140" r="140"/>
  <path class="cls-1" d="M83.39,95.23l-51.82.03v90.05h27.75v-27.24h16.39c17.76,0,31.03-7.56,34.43-23.5l-26.76-39.34Z"/>
  <polygon class="cls-1" points="152.77 137.64 181.65 95.26 151.29 95.26 87.85 185.31 120.23 185.31 136.12 158.45 151.51 185.31 184.93 185.31 152.77 137.64"/>
  <polygon class="cls-1" points="123.89 95.26 91.34 95.26 117.79 132.43 132.75 111.18 123.89 95.26"/>
  <polygon class="cls-1" points="251.37 162.23 211.52 162.23 211.52 95.26 183.77 95.26 183.77 169.75 194.37 185.31 251.37 185.31 251.37 162.23"/>
  <g>
    <path class="cls-2" d="M400.15,173.3c-7.38,9.25-20.62,14.38-44.75,14.38-20.75,0-32.5-4.88-39-12.25-6-6.62-6.62-13.5-7.12-16.75l31.12-.75c.25,1.5.88,3.88,4,6.12,3,2.25,7.38,3.88,15.62,3.88,3.25,0,7.25-.38,10.25-1.88,2.62-1.38,5-3.88,5-7,0-2-.88-4.62-5-6.38-2.12-.88-7.38-1.88-13.5-3-6.88-1.38-13.88-2.5-20.75-4.38-7.5-2.12-14.38-4.75-18.88-11.62-3.25-5-3.5-10-3.5-12.25,0-4.75,1.38-9.12,3.88-13,5.75-9.25,18-15.38,40.62-15.38,7.75,0,20.12,1,27.5,3.5,3.12,1,6,2.5,8.62,4.5,8.38,6.12,9.62,13.88,10.25,17.75l-30.88,1.75c-.38-1-.62-2-1.12-2.88-2-3.38-6.5-5.38-14.5-5.38-.5,0-8.12-.12-11.88,3-1.75,1.38-2,3.38-2,4.25,0,1,.25,2.62,2,4,4.38,3.5,20,5.62,35.75,9.25,10.12,2.38,14.88,5,18.25,8.62,2.25,2.25,5.88,6.88,5.88,15.12,0,6-2.12,12.12-5.88,16.75Z"/>
    <path class="cls-2" d="M514.02,185.05v-56.5l-20.88,56.5h-24.38l-20.75-56.25v56.25h-31v-88.25h41.88l22.25,57.62,22.25-57.62h41.75v88.25h-31.12Z"/>
    <path class="cls-2" d="M630.65,185.05l-4.75-14.38h-33.75l-4.75,14.38h-34.75l38.12-88.25h36l38.25,88.25h-34.38ZM608.9,121.3l-10.12,29.88h20.5l-10.38-29.88Z"/>
    <path class="cls-2" d="M738.9,185.05l-18.25-32.12h-16.75v32.12h-31.75v-88.25h65c11.88,0,23.25.88,30.38,12.12,1.62,2.62,4.5,7.88,4.5,15.88,0,4.12-.88,15.88-12,22-2.12,1.25-3.75,1.88-8.25,3l22,35.25h-34.88ZM739.15,120.43c-2.12-3.12-5.62-3.62-9-3.62h-26.25v16.25h23.75c6,0,9.12-.75,11.12-3.12,1.62-2,1.75-4,1.75-5,0-.75-.12-2.75-1.38-4.5Z"/>
    <path class="cls-2" d="M838.27,116.55v68.5h-31.75v-68.5h-31.38v-19.75h94.38v19.75h-31.25Z"/>
    <path class="cls-2" d="M920.65,185.05v-88.25h31.62v88.25h-31.62Z"/>
    <path class="cls-2" d="M1067.02,173.68c-11.38,11.5-29.75,14.38-45.12,14.38-16.62,0-26.12-3.12-32.75-6.25-8.75-4.12-25.62-15-25.62-40.88,0-4.62.62-16,8-26.62,7.75-11.12,22-21.25,51.38-21.25,24,0,37.62,6.25,45,14.38,4.88,5.25,6.75,11.12,7.5,13.5l-29.25,5.12c-.88-1.75-1.38-2.75-2.62-4.38-4.75-6.12-12.62-8.62-20-8.5-3,0-13,.62-20,8-4.88,5.25-6.88,12.62-6.88,19.62,0,9.38,3.38,15,5.75,18,6.88,9,16.25,9.25,20.25,9.25,11.75,0,18.75-5.88,21.5-9.5,1-1.38,1.62-2.38,2.75-5.25l30.12,3.12c-1,3.25-3.38,10.5-10,17.25Z"/>
    <path class="cls-2" d="M1141.27,116.55v68.5h-31.75v-68.5h-31.38v-19.75h94.38v19.75h-31.25Z"/>
  </g>
  <path class="cls-2" d="M66.15,137.54c-.94,0-1.89-.37-2.62-1.11l-8.17-8.28c-2.66-2.69-2.97-7.11-.71-10.05,1.22-1.59,3.01-2.57,4.93-2.69,1.92-.12,3.8.61,5.18,2.01l1.41,1.43,1.34-1.35c1.35-1.36,3.1-2.07,4.97-2,1.86.06,3.58.9,4.84,2.35,2.55,2.93,2.4,7.55-.32,10.3l-8.24,8.29c-.73.74-1.67,1.11-2.61,1.11ZM66.62,133.16h0s0,0,0,0ZM60,119.96s-.1,0-.15,0c-.68.04-1.3.39-1.74.97-.86,1.12-.7,2.89.34,3.94l7.7,7.8,7.76-7.81c1.05-1.06,1.1-2.83.12-3.96-.45-.52-1.05-.82-1.7-.84-.63-.02-1.26.23-1.74.71l-4.43,4.46-4.5-4.56c-.46-.47-1.05-.72-1.66-.72Z"/>
</svg>